<svg width="42" height="42" viewBox="0 0 42 42" fill="currentColor" xmlns="http://www.w3.org/2000/svg">
<path d="M21 7.04949C21 6.12381 20.8185 5.2072 20.4657 4.35199C20.113 3.49678 19.596 2.71971 18.9443 2.06516C18.2925 1.41061 17.5188 0.89139 16.6672 0.537149C15.8157 0.182909 14.903 0.000583371 13.9813 0.000583371H7.10899C6.17976 -0.0114234 5.2574 0.162017 4.39545 0.510842C3.53349 0.859666 2.74909 1.37693 2.08775 2.03262C1.42642 2.68831 0.901328 3.46936 0.542938 4.33047C0.184549 5.19158 0 6.1156 0 7.0489C0 7.98221 0.184549 8.90622 0.542938 9.76733C0.901328 10.6284 1.42642 11.4095 2.08775 12.0652C2.74909 12.7209 3.53349 13.2381 4.39545 13.587C5.2574 13.9358 6.17976 14.1092 7.10899 14.0972H8.45418V17.5003C8.45418 17.5003 21 15.7994 21 7.04949ZM14.6109 25.6669C14.6109 28.2452 12.5316 30.3335 9.96432 30.3335C7.39707 30.3335 5.31772 28.2452 5.31772 25.6669C5.31772 23.0886 7.39707 21.0003 9.96432 21.0003C12.5316 21.0003 14.6109 23.0886 14.6109 25.6669ZM9.96432 32.6668C6.66872 32.6668 0.0902936 34.3351 0.0902936 37.6449V42H19.8384V37.6449C19.8384 34.3339 13.2599 32.6668 9.96432 32.6668ZM32.0357 30.3335C34.6029 30.3335 36.6823 28.2452 36.6823 25.6669C36.6823 23.0886 34.6029 21.0003 32.0357 21.0003C29.4684 21.0003 27.3891 23.0886 27.3891 25.6669C27.3891 28.2452 29.4684 30.3335 32.0357 30.3335ZM32.0357 32.6668C28.7401 32.6668 22.1617 34.3351 22.1617 37.6449V42H41.9097V37.6449C41.9097 34.3339 35.3313 32.6668 32.0357 32.6668ZM30.342 1.16723C28.4805 1.16723 26.6953 1.90988 25.379 3.23181C24.0628 4.55374 23.3233 6.34665 23.3233 8.21614C23.3233 16.966 34.4751 18.667 34.4751 18.667V15.2639H34.891C35.8202 15.2759 36.7426 15.1024 37.6046 14.7536C38.4665 14.4048 39.2509 13.8875 39.9122 13.2318C40.5736 12.5761 41.0987 11.7951 41.4571 10.934C41.8155 10.0729 42 9.14886 42 8.21555C42 7.28225 41.8155 6.35823 41.4571 5.49712C41.0987 4.63601 40.5736 3.85496 39.9122 3.19927C39.2509 2.54358 38.4665 2.02632 37.6046 1.67749C36.7426 1.32867 35.8202 1.15523 34.891 1.16723H30.342Z" fill="currentColor"/>
</svg>
